<svg viewBox="0 0 817 60" fill="none" xmlns="http://www.w3.org/2000/svg">
<path fill-rule="evenodd" clip-rule="evenodd" d="M2 0.500195H44V4.2502C44 7.5002 43.85 8.2002 42.8 9.4002C42.15 10.1502 37.3 15.8002 32 22.0002C26.7 28.2002 21.9 33.8002 21.3 34.5002C20.75 35.2002 18.3 38.0002 15.95 40.7502C13.6 43.5002 11.15 46.6502 10.5 47.7502C9.85 48.8502 9.1 50.5502 8.85 51.5002C8.6 52.4502 8.25 54.7002 7.75 59.7502H0.75L0.85 55.0002C0.9 51.5502 1.2 49.5002 1.95 47.5002C2.55 46.0002 3.95 43.5002 5.1 41.9502C6.3 40.4002 8.15 38.1002 9.25 36.9002C10.35 35.6502 16.1 28.9502 22 22.0502C27.9 15.1002 32.75 9.15019 32.75 8.85019C32.75 8.40019 28.8 8.2002 2 8.0002V0.500195ZM97.95 0.500195H106V8.0002C106 14.4502 106.1 15.6002 106.85 16.4002C107.55 17.1002 109.25 17.4502 114 17.9502C117.45 18.3502 121.35 18.9002 122.75 19.2502C124.1 19.6002 126.15 20.3002 127.25 20.8502C128.35 21.4002 130 22.6502 130.95 23.5502C131.9 24.5002 133.25 26.5002 133.95 28.0002C135.2 30.7502 135.2 30.8002 135.25 59.7502H127.75L127.5 46.2502C127.3 35.0002 127.1 32.5002 126.45 31.2502C125.95 30.4002 125.2 29.3502 124.7 28.9002C124.15 28.4502 122.95 27.7502 122 27.3502C121.05 26.9502 118 26.3502 115.25 26.0502C112.5 25.7502 108.9 25.2502 107.25 24.9502C105.6 24.6502 103.45 24.0002 102.5 23.4502C101.55 22.9002 100.2 21.6502 99.5 20.6502C98.3 18.9002 98.25 18.5002 98.1 9.6502L97.95 0.500195ZM219 0.500195V23.0002L217.15 23.8002C216.1 24.2002 214.55 25.1002 213.65 25.8002C212.75 26.4502 211.8 26.9002 211.5 26.7502C211.2 26.6002 210.95 21.7002 210.9 13.8502C210.9 6.9002 211.05 1.0502 211.25 0.850195C211.5 0.650195 213.3 0.500195 219 0.500195ZM251 0.500195H259V60.0002L251.25 59.7502L251 32.5002H236.65C222.3 32.5002 222.25 32.5002 221.2 33.6502C220.6 34.2502 219.9 35.2502 219.55 35.9002C219.2 36.6002 219 41.0002 219 60.0002L211.25 59.7502L211.1 48.5002C211 41.0502 211.15 36.5002 211.55 35.0002C211.9 33.8002 212.65 31.8002 213.3 30.6502C213.95 29.4502 215.35 27.9502 216.4 27.3002C217.4 26.6002 219.4 25.7002 220.75 25.3002C222.75 24.7002 226.15 24.5002 251 24.5002V0.500195ZM340 0.500195H348L347.85 9.1502C347.75 16.8002 347.65 18.0002 346.7 19.7502C346.15 20.8502 344.8 22.3502 343.7 23.1002C342.65 23.8002 340.7 24.6502 339.4 24.9502C338.1 25.2502 335.95 25.5002 334.65 25.5002C333.35 25.5502 330.55 25.8502 328.5 26.2002C326.45 26.5502 323.85 27.3002 322.8 27.8002C321.7 28.3502 320.5 29.3002 320.05 30.0002C319.6 30.6502 319 32.0002 318.65 33.0002C318.3 33.9502 318 36.6002 318 38.9002C318 41.7502 318.3 43.8502 318.95 45.6502C319.5 47.1002 320.55 48.8502 321.35 49.5502C322.1 50.2502 324.05 51.2002 325.65 51.6502C327.75 52.3002 330 52.5002 339.75 52.2502L340.25 27.3502L341.75 26.8502C342.6 26.6002 344.15 25.8002 345.25 25.1502C346.35 24.5002 347.4 24.1002 347.65 24.3502C347.85 24.6002 347.95 32.6502 347.75 59.7502H336C327.35 59.7502 323.8 59.6002 322.5 59.1002C321.55 58.7002 319.75 57.9502 318.55 57.3502C317.35 56.7502 315.45 55.2502 314.3 53.9502C313.2 52.7002 311.7 50.2002 311 48.4502C309.95 45.7002 309.8 44.4502 309.75 39.0002C309.75 34.9502 310 32.1502 310.45 31.0002C310.8 30.0502 311.6 28.3002 312.2 27.0502C312.75 25.8502 314.05 24.2002 315 23.3502C315.95 22.5002 317.9 21.3502 319.25 20.7502C320.65 20.1502 323.1 19.4002 324.75 19.1002C326.4 18.8002 330 18.3002 332.75 18.0002C337.05 17.5502 337.9 17.3002 338.9 16.2502C339.95 15.1002 340 14.6002 340 7.7502V0.500195ZM359.05 0.450195L366.25 0.750195L366.4 5.0002C366.5 8.6502 366.4 9.3502 365.65 9.9002C365.15 10.2502 363.7 10.5502 362.4 10.5002C360.75 10.5002 359.75 10.2502 359.2 9.6502C358.8 9.1502 358.55 8.5002 358.7 8.1502C358.9 7.8002 359 5.9502 359.05 4.0002V0.450195ZM414 0.500195V9.2502C414 17.4002 413.9 18.1502 412.85 20.0002C412.25 21.1502 410.95 22.5502 410 23.2002C409 23.8002 407.15 24.6002 405.85 24.9002C404.55 25.2002 402.3 25.5002 400.85 25.5002C399.4 25.5002 396.55 25.8002 394.5 26.1502C392.4 26.5502 390 27.2002 389.1 27.6502C388.2 28.1002 386.95 29.2002 386.25 30.1002C385.45 31.2502 384.9 32.8502 384.55 35.5002C384.2 38.0502 384.25 40.3002 384.6 42.5002C384.85 44.2502 385.4 46.3002 385.7 47.0002C386.05 47.6502 387 48.8002 387.8 49.5002C388.6 50.2002 390.55 51.1502 392.1 51.6502C394.05 52.2002 396.8 52.5002 406 52.5002L405.95 27.7502L407.2 27.1002C407.9 26.7502 408.7 26.5002 409 26.5002C409.25 26.5002 410.4 25.9002 411.5 25.2502C412.6 24.5502 413.6 24.0002 413.75 24.0002C413.85 24.0002 413.95 32.0502 413.75 59.7502H402.5C394.3 59.7502 390.55 59.5502 388.75 59.0502C387.35 58.6502 385.55 57.8502 384.75 57.3502C383.9 56.8002 382.35 55.5002 381.3 54.5502C380.25 53.5502 378.95 51.8502 378.4 50.7502C377.8 49.6502 377.05 47.5502 376.65 46.1002C376.3 44.6502 376 41.3002 376 38.6002C376 34.9002 376.25 32.9002 377.1 30.2502C377.8 28.1502 378.9 26.0502 380 24.7502C381 23.6502 383.15 22.0502 384.75 21.2002C386.4 20.3502 388.95 19.4002 390.5 19.1002C392 18.8002 395.7 18.2502 398.75 17.9502C402.6 17.6002 404.5 17.1502 405.15 16.5502C405.9 15.8502 406 14.8002 406 8.85019C406 5.10019 406.1 1.6502 406.3 1.2502C406.5 0.650195 407.45 0.500195 414 0.500195V0.500195ZM467.15 0.500195H479.75L480.3 1.8502C480.6 2.6002 481.5 4.8002 482.2 6.7502C482.95 8.6502 484.15 11.9002 484.8 14.0002C485.5 16.0502 486.25 18.2002 486.45 18.7502C486.7 19.3002 487.15 20.5002 487.5 21.5002C487.85 22.4502 488.4 23.9002 488.75 24.7502C489.05 25.5502 489.95 28.0502 490.7 30.2502C491.45 32.4502 492.25 34.7002 492.45 35.2502C492.7 35.8002 493.15 37.0002 493.5 38.0002C493.85 38.9502 494.4 40.4002 494.75 41.2502C495.1 42.0502 495.55 43.4002 495.75 44.2502C495.95 45.0502 496.3 45.9502 496.45 46.2502C496.65 46.5002 497.1 47.7502 497.5 49.0002C497.85 50.2002 498.3 51.4502 498.5 51.7502C498.65 52.0002 499.1 53.2502 499.5 54.5002C499.85 55.7002 500.35 56.9502 500.6 57.2502C500.8 57.5002 501 58.2502 501 58.8502C501 59.9502 500.8 60.0002 497.1 60.0002C494.533 60.0335 493.067 59.8335 492.7 59.4002C492.4 59.0502 491.85 57.9502 491.5 57.0002C491.15 56.0002 490.7 54.8002 490.5 54.2502C490.25 53.7002 489.85 52.5502 489.6 51.7502C489.3 50.9002 488.9 49.8002 488.7 49.2502C488.5 48.7002 487.95 47.2002 486.75 43.7502L477.1 43.6002C469.45 43.5002 466.9 43.6502 464.6 44.3002C462.6 44.8502 461.2 45.6502 460 46.9002C458.9 48.0502 457.6 50.3502 456.55 53.0002C455.65 55.3002 454.65 57.8502 454.3 58.6502C453.75 60.0002 453.65 60.0002 449.85 60.0002C447.283 60.0002 445.883 59.7835 445.65 59.3502C445.5 59.0002 445.75 57.7002 446.2 56.5002C446.7 55.2502 447.5 53.3002 448.05 52.1002C448.55 50.9502 449 49.8002 449 49.6002C448.95 49.4002 449.5 48.1002 450.2 46.7502C450.85 45.3502 452.4 43.1502 453.6 41.8002C454.95 40.2502 456.8 38.8502 458.75 38.0002C460.95 36.9502 463.2 36.4502 467.25 36.0002C470.25 35.7002 475.1 35.4002 478 35.3502C482.9 35.2502 483.25 35.2002 483.1 34.2502C483 33.7002 482.75 32.8002 482.5 32.2502C482.25 31.7002 481.45 29.5502 480.8 27.5002C480.1 25.4002 478.85 21.8002 477.95 19.5002C477.1 17.1502 476.2 14.6502 476 14.0002C475.8 13.3002 475.2 11.8002 474.65 10.6002C474.15 9.45019 473.6 8.5002 473.5 8.4502C473.35 8.4502 472.95 9.0502 472.6 9.7002C472.25 10.4002 471.75 11.5002 471.5 12.1002C471.25 12.7502 470.7 14.2502 470.3 15.5002C469.9 16.7002 469.2 18.7502 468.75 20.0002C468.25 21.2002 467.7 22.7002 467.5 23.2502C467.25 23.8002 466.8 25.0002 466.5 26.0002C466.15 26.9502 465.7 28.2002 465.5 28.7502C465.25 29.3002 464.8 30.5002 464.45 31.5002C464.1 32.4502 463.45 33.5002 463.05 33.8502C462.6 34.2002 461.65 34.5002 460.95 34.5002C460.25 34.5002 459.45 34.7002 459.2 34.9002C458.95 35.1502 457.7 35.7502 454.25 37.1002L454.6 35.0502C454.8 33.9002 455.2 32.6002 455.45 32.1002C455.75 31.6502 456.65 29.3002 457.5 27.0002C458.35 24.6502 459.5 21.5002 460.05 20.0002C460.65 18.4502 461.25 16.8002 461.5 16.2502C461.7 15.7002 462.15 14.4502 462.5 13.5002C462.8 12.5002 463.25 11.3002 463.5 10.7502C463.7 10.2002 464.35 8.5002 464.9 7.0002C465.45 5.4502 466.2 3.4002 466.55 2.3502L467.15 0.500195ZM587.95 0.500195V7.7502C587.95 14.6002 588.05 15.1002 589.1 16.1502C590.05 17.1502 591.1 17.4002 596.2 17.9502C599.5 18.3002 603.25 18.8502 604.45 19.1502C605.7 19.4502 607.75 20.1002 608.95 20.6502C610.2 21.1502 611.95 22.3002 612.9 23.1502C613.8 24.0502 615.1 25.9002 615.8 27.2502C616.85 29.4002 617.1 30.8502 617.5 37.2502C617.75 41.4002 617.95 47.8002 617.95 51.5002C618 56.2002 617.8 58.5502 617.35 59.1502C616.85 59.9002 616.15 60.0502 610.2 59.7502L609.9 46.7502C609.75 39.6002 609.45 33.2002 609.2 32.5002C609 31.8002 608.45 30.7002 607.95 30.0002C607.5 29.3002 606.25 28.3502 605.15 27.8002C604.1 27.2502 602 26.6502 600.45 26.4002C598.95 26.1502 595.8 25.8002 593.45 25.5002C591.15 25.2502 588.45 24.8502 587.45 24.5502C586.5 24.3002 584.95 23.5502 584 22.9002C583.05 22.3002 581.85 20.8502 581.25 19.7502C580.35 18.0502 580.2 16.7002 580.05 10.2502C579.95 6.1502 580.05 2.2502 580.2 1.6502C580.45 0.600195 580.75 0.500195 587.95 0.500195V0.500195ZM636.2 0.750195L636.35 5.0002C636.4 7.8502 636.25 9.4502 635.85 9.9002C635.5 10.3002 634.1 10.5502 632.6 10.5502C631.15 10.5002 629.65 10.4002 629.2 10.2502C628.65 10.0502 628.45 9.0002 628.4 5.6002C628.35 3.1502 628.5 1.0002 628.75 0.800195C629 0.650195 630.75 0.550195 636.2 0.750195V0.750195ZM762.45 6.0502C763.7 6.0502 765.2 6.1502 765.85 6.2502C766.9 6.5002 766.95 6.7502 766.95 10.7502C766.95 14.4502 767.1 15.2002 768.1 16.3002C769.05 17.4002 769.75 17.6002 777.7 18.2502L777.95 25.5002H773.35C770.8 25.5002 767.85 25.2002 766.75 24.9002C765.7 24.5502 763.95 23.5502 762.9 22.6502C761.6 21.5502 760.65 20.1002 759.95 18.2502C759.3 16.4002 758.95 14.0502 758.85 11.0502C758.8 7.5502 758.9 6.5502 759.5 6.3502C759.9 6.2002 761.25 6.0502 762.45 6.0502V6.0502ZM647.35 6.4502L655.2 6.7502L655.45 11.3502C655.65 14.5002 655.95 16.2502 656.45 16.7502C657 17.3002 658.6 17.6502 666 18.2502L665.7 25.7502L661.45 25.6502C659.15 25.5502 656.45 25.2502 655.45 24.9502C654.5 24.6002 652.95 23.8502 651.95 23.2002C651 22.6002 649.65 21.1002 649 19.9002C648 18.1002 647.75 16.9002 647.6 12.1002L647.35 6.4502ZM690.3 17.5502C691.75 17.5002 694.1 17.8002 695.55 18.2002C697 18.6002 698.75 19.1502 699.45 19.4002C700.1 19.7002 701.6 20.5502 702.7 21.3502C703.8 22.2002 705.35 24.0502 706.15 25.5502C706.95 27.0502 707.9 29.6002 708.25 31.2502C708.6 32.9002 708.9 35.8002 708.9 37.6502C708.95 39.5002 708.8 41.3502 708.7 41.7502C708.45 42.4002 706.4 42.5002 694.2 42.5002C681.05 42.5002 679.9 42.6002 679.65 43.4002C679.5 43.8502 679.55 45.0502 679.75 46.0002C680 46.9502 680.85 48.4502 681.65 49.3002C682.65 50.3002 684.25 51.1502 686.05 51.7002C688.15 52.3002 691 52.5002 703.95 52.5002L704.45 53.7502C704.7 54.4502 704.95 55.7502 704.95 56.6502C704.95 57.5502 704.65 58.7002 704.3 59.2002C703.75 60.0502 703.05 60.1002 694.2 59.8502C686.1 59.6502 684.3 59.4502 681.95 58.5502C680.4 57.9502 678.5 56.9502 677.7 56.3502C676.85 55.7002 675.7 54.5502 675.1 53.7002C674.5 52.9002 673.55 51.2002 673 49.9002C672.25 48.2002 671.95 46.4502 671.95 44.0002C671.95 41.6002 672.2 40.0502 672.8 39.0002C673.3 38.1502 674.6 37.0502 675.7 36.5002C677.5 35.6002 678.75 35.5002 700.95 35.5002V33.6502C700.9 32.6002 700.5 30.8502 699.95 29.7502C699.25 28.3002 698.4 27.4502 696.75 26.6502C694.95 25.7502 693.55 25.5002 690.45 25.5002C687.35 25.5002 685.95 25.7502 684.3 26.6002C683.15 27.1502 681.9 28.0002 681.6 28.4502C681.25 28.9002 680.7 29.8002 680.35 30.5002C680 31.2002 679.4 32.1502 678.95 32.6502C678.55 33.1502 677.8 33.5502 677.3 33.5002C676.85 33.5002 675.5 33.9502 674.3 34.5002C673.15 35.0502 672 35.5002 671.8 35.5002C671.6 35.5002 671.6 34.5502 671.75 33.4002C671.95 32.2002 672.6 30.0002 673.2 28.5002C673.85 27.0002 675.1 24.8502 676 23.8002C676.95 22.7002 678.6 21.2502 679.7 20.5502C680.8 19.9002 683.05 18.9002 684.7 18.4502C686.35 17.9502 688.85 17.5502 690.3 17.5502V17.5502ZM67.2 18.1002C78.35 18.2502 78.75 18.3002 81.2 19.5502C82.9 20.4002 84.2 21.5502 85.35 23.3002C86.75 25.4502 86.95 26.1502 86.95 28.9002C86.95 30.6002 86.6 32.6502 86.25 33.4002C85.85 34.1502 84.9 35.3502 84.1 36.1002C83.3 36.8502 81.45 37.9002 79.95 38.4502C78.4 39.0002 74.95 39.8002 72.2 40.2002C69.45 40.6002 66.05 41.3002 64.7 41.7502C63.3 42.1502 61.65 43.0002 61.05 43.6502C60.2 44.5002 59.9 45.3002 59.95 47.0002C59.95 48.2502 60.1 49.5002 60.3 49.8002C60.5 50.1502 61.45 50.8502 62.45 51.4502C64 52.4002 64.95 52.5002 78.45 52.5002L78.7 42.7502L81.2 41.5002C82.55 40.8002 84.2 39.9002 84.8 39.5002C85.4 39.1002 86 38.8502 86.15 39.0002C86.3 39.1502 86.4 43.7502 86.45 49.2502C86.45 54.7502 86.3 59.4502 86.05 59.6502C85.85 59.8502 80.05 59.9502 73.2 59.8502C61.7 59.7002 60.5 59.6002 58.7 58.6502C57.6 58.1002 56.05 56.9502 55.25 56.2002C54.45 55.4002 53.4 53.9002 52.9 52.9002C52.2 51.5002 51.95 49.9502 51.95 47.0002C51.95 44.0502 52.2 42.5002 52.9 41.1502C53.4 40.1002 54.5 38.6502 55.25 37.9002C56.05 37.2002 57.7 36.1502 58.95 35.6502C60.15 35.1002 62.2 34.4502 63.45 34.1502C64.65 33.8002 67.15 33.3002 68.95 33.0002C70.7 32.7002 73.4 32.2002 74.85 31.8502C76.35 31.5502 77.85 30.9002 78.25 30.5002C78.65 30.1002 78.9 29.2002 78.85 28.5002C78.75 27.8002 78.15 27.0002 77.45 26.6502C76.55 26.2002 73.25 26.0002 66.3 26.0002C60.9 26.0002 56.1 25.9002 55.7 25.7502C55.15 25.5502 54.9 24.6502 54.85 22.1002C54.8 20.2002 54.95 18.5002 55.25 18.3002C55.5 18.1002 60.85 18.0002 67.2 18.1002V18.1002ZM158.85 18.1002C170.05 18.2502 170.2 18.3002 172.8 19.6502C174.25 20.4002 176 21.6502 176.65 22.4002C177.3 23.1502 178.1 24.9002 178.45 26.2502C178.8 27.6502 178.9 29.5502 178.75 30.5002C178.55 31.4502 178 33.0502 177.55 33.9502C177.05 34.9002 175.9 36.2002 174.95 36.8002C173.95 37.4502 172.15 38.3002 170.95 38.7002C169.7 39.1002 167.1 39.6502 165.2 39.9502C163.25 40.3002 160.45 40.8002 158.95 41.1002C157.4 41.4502 155.5 41.9502 154.7 42.3002C153.85 42.6502 152.9 43.2002 152.55 43.6002C152.25 43.9502 151.8 45.0502 151.65 46.0002C151.5 46.9502 151.6 48.4002 151.9 49.1502C152.2 49.9002 153.15 50.9502 154.05 51.5002C155.5 52.4002 156.55 52.5002 169.95 52.5002V48.0002C169.95 44.1502 170.1 43.3502 170.95 42.5002C171.5 41.9502 172.35 41.5002 172.8 41.5002C173.3 41.5002 174.4 40.9002 175.3 40.2502C176.2 39.5502 177.15 39.0002 177.45 39.0002C177.75 39.0002 177.95 42.8502 177.95 60.0002L165.3 59.8502C155.15 59.7502 152.35 59.5502 150.95 58.9002C149.95 58.5002 148.4 57.5002 147.5 56.7002C146.55 55.9002 145.35 54.3502 144.75 53.2502C143.9 51.7002 143.7 50.3502 143.7 47.0002C143.7 43.9002 143.95 42.3002 144.55 41.1502C145.05 40.2502 146.1 38.9002 146.85 38.1502C147.65 37.4002 148.95 36.4502 149.75 36.0502C150.55 35.7002 151.65 35.2002 152.2 35.0002C152.75 34.7502 154.4 34.3002 155.95 34.0002C157.45 33.7002 159.45 33.2002 160.45 32.9502C161.4 32.7502 162.85 32.5002 163.7 32.5002C164.5 32.5002 166.05 32.2002 167.15 31.8502C168.2 31.5502 169.5 30.7502 170 30.1502C170.75 29.2002 170.85 28.8002 170.35 27.9002C170.05 27.2502 169.7 26.6502 169.6 26.5002C169.45 26.3502 164.35 26.1502 147.2 25.7502L147 22.5502C146.9 20.8002 147 19.0502 147.15 18.6502C147.45 18.0502 149.3 17.9502 158.85 18.1002V18.1002ZM280.4 18.0002C285.8 18.0002 291.4 18.2502 292.95 18.5002C294.45 18.8002 296.65 19.6502 297.8 20.4002C298.95 21.1502 300.35 22.5502 300.9 23.5002C301.65 24.8002 301.9 26.1502 301.9 28.7502C301.9 31.4502 301.65 32.7002 300.8 34.1502C300.2 35.2502 299 36.5002 298.2 37.0002C297.35 37.5002 295.65 38.2502 294.45 38.6502C293.2 39.0502 290.5 39.6502 288.45 40.0002C286.35 40.3002 283.1 40.9502 281.2 41.4002C279.25 41.8502 277.05 42.7502 276.3 43.3502C275.15 44.3502 274.95 44.9002 274.95 47.0002C274.95 49.1502 275.15 49.6502 276.45 50.7502C277.25 51.4502 278.45 52.1502 279.05 52.3002C279.7 52.4002 283.2 52.5002 293.7 52.2502L294.2 42.2502L295.7 41.7502C296.5 41.5002 297.95 40.7502 298.8 40.1502C299.7 39.5002 300.65 39.0002 300.95 39.0002C301.2 39.0002 301.55 39.3502 301.7 39.7502C301.8 40.1502 301.95 44.5002 301.95 49.4002C301.95 55.7502 301.75 58.5002 301.3 59.1502C300.75 60.0002 299.8 60.0502 288.45 59.9002C276.55 59.7502 276.1 59.7002 273.7 58.5002C272.35 57.8002 270.55 56.4502 269.7 55.4502C268.9 54.4502 267.9 52.8002 267.55 51.7002C267.25 50.6502 266.95 48.3502 266.95 46.6502C266.95 44.4002 267.25 42.8502 268.05 41.1502C268.75 39.7002 270.05 38.2002 271.45 37.2002C272.65 36.3002 274.8 35.2002 276.2 34.8002C277.55 34.3502 279.9 33.7502 281.45 33.5002C282.95 33.2002 285.55 32.8002 287.2 32.6002C288.85 32.3502 291.05 31.7502 292.1 31.2002C293.75 30.4002 294 30.0502 293.85 28.7502C293.75 27.7835 293.283 27.0835 292.45 26.6502C291.55 26.2002 288.25 26.0002 281.3 26.0002C275.9 26.0002 271.1 25.9002 270.7 25.7502C270.15 25.5502 269.9 24.6502 269.85 22.1002C269.8 20.2002 269.95 18.5002 270.2 18.3502C270.4 18.1502 275 18.0002 280.4 18.0002V18.0002ZM366.2 18.2502V59.7502H359.2L359.1 39.5002C359.1 28.3502 359.15 18.9502 359.25 18.6002C359.4 18.1502 360.4 18.0002 366.2 18.2502V18.2502ZM527.3 18.0502C531.9 18.0002 533 18.1502 533.2 18.7502C533.3 19.1502 533.45 20.7002 533.45 22.1502C533.45 23.6002 533.2 25.0502 532.85 25.4002C532.45 25.8002 530.567 26.0002 527.2 26.0002C524.45 26.0002 521.4 26.2002 520.45 26.5002C519.45 26.7502 518.3 27.5002 517.8 28.2002C517.05 29.3502 516.9 31.1502 516.8 44.2502C516.75 53.2002 516.5 59.1502 516.2 59.5002C515.9 59.8002 514.3 59.9502 509.2 59.7502L509.05 43.9002C508.95 28.3002 508.95 27.9502 510.05 25.6502C510.7 24.3502 511.75 22.7502 512.45 22.0502C513.15 21.3502 514.6 20.3502 515.7 19.8002C516.8 19.3002 518.6 18.7002 519.7 18.5002C520.8 18.3002 524.2 18.1002 527.3 18.0502ZM568.7 18.2502V25.7502L560.7 26.0502C552.7 26.3002 552.7 26.3002 550.3 27.9002C549 28.8002 547.95 29.5502 547.95 29.6502C547.95 29.7002 547.5 31.0002 546.95 32.5002C546.25 34.4002 545.95 36.5002 545.95 39.1502C545.95 41.7169 546.267 43.8835 546.9 45.6502C547.45 47.1002 548.5 48.8502 549.25 49.5502C550.05 50.2502 552 51.2002 553.55 51.6502C555.6 52.2502 558.25 52.5002 568.95 52.5002L568.7 59.7502L560.2 59.7002C553.75 59.7002 551.15 59.5002 549.45 58.9002C548.2 58.4502 546.05 57.2502 544.7 56.2502C543.3 55.2502 541.7 53.6502 541.05 52.7002C540.45 51.8002 539.5 49.6002 538.95 47.9002C538.15 45.5002 537.9 43.4002 537.9 39.0002C537.9 34.3002 538.15 32.7002 539.05 30.1002C539.7 28.3502 540.95 25.9002 541.95 24.6002C542.9 23.3502 544.7 21.7502 545.95 21.0002C547.15 20.3002 549.2 19.4502 550.45 19.1002C551.65 18.8002 553.25 18.4502 553.95 18.3502C554.6 18.2002 558.2 18.1502 568.7 18.2502V18.2502ZM636.2 18.2502V59.7502H628.7L628.6 39.5002C628.6 28.3502 628.65 18.9502 628.75 18.6002C628.9 18.1502 629.95 18.0002 636.2 18.2502V18.2502ZM747.7 18.2502V25.7502L739.95 26.0502C735.65 26.2002 731.55 26.6002 730.8 26.9502C730.05 27.2502 728.7 28.2502 727.8 29.1502C726.85 30.1002 725.95 31.7502 725.55 33.1502C725.2 34.4502 724.95 37.1002 724.95 39.0002C724.95 40.9502 725.2 43.6002 725.55 44.9002C725.983 46.4669 726.867 47.9169 728.2 49.2502C729.533 50.5835 730.983 51.4669 732.55 51.9002C733.9 52.2502 737.85 52.5002 747.95 52.5002L747.7 59.7502H739.45C733.6 59.7502 730.5 59.5502 728.95 59.0502C727.7 58.6502 725.65 57.6502 724.45 56.8002C723.2 56.0002 721.95 55.0502 721.65 54.8002C721.4 54.5002 720.65 53.6002 720.05 52.7502C719.5 51.9502 718.5 49.8002 717.9 48.0002C717 45.4002 716.75 43.6502 716.75 39.2502C716.75 35.7002 717.05 32.8502 717.55 31.2502C717.95 29.9002 718.75 27.8502 719.3 26.7502C719.85 25.6502 721.25 23.9002 722.35 22.9002C723.5 21.8502 725.5 20.5502 726.8 19.9502C728.1 19.3502 730.3 18.7002 731.7 18.5002C733.05 18.3002 737.2 18.1502 747.7 18.2502ZM813.2 18.2502L813.3 21.5002C813.4 23.6002 813.2 25.0002 812.8 25.4002C812.35 25.9002 810.05 26.0502 804.2 26.1002C799.8 26.1002 795.6 26.2502 794.95 26.4502C794.25 26.6502 793.3 27.5502 792.8 28.4002C792 29.9502 792 30.1002 792.8 31.6002C793.35 32.5502 794.4 33.4002 795.45 33.8002C796.4 34.1502 798.05 34.4502 799.05 34.4502C800.1 34.5002 802 34.7502 803.3 35.0502C804.6 35.3502 806.7 35.8002 807.95 36.1502C809.15 36.4502 810.75 37.0002 811.45 37.4502C812.1 37.8502 813.2 38.6502 813.85 39.2502C814.5 39.8002 815.45 41.1002 816 42.1502C816.7 43.5002 816.95 45.0502 816.95 47.9002C816.95 50.9502 816.7 52.1002 815.85 53.5002C815.3 54.4502 814.2 55.7502 813.5 56.4002C812.75 57.0002 811.15 58.0002 809.95 58.6002C807.85 59.6502 807 59.7502 786.2 59.7502L785.95 52.5002H794.8C801.3 52.5502 804.15 52.3502 805.45 51.8502C806.4 51.4502 807.6 50.7502 808.05 50.3002C808.6 49.8002 808.95 48.7502 808.95 47.5002C808.95 46.0002 808.65 45.3002 807.8 44.6502C807.15 44.1502 805.4 43.5002 803.9 43.1502C802.4 42.8502 799.5 42.3002 797.45 42.0002C795.35 41.6502 792.65 40.9502 791.45 40.4002C790.2 39.8502 788.55 38.8002 787.75 38.1002C786.95 37.3502 785.9 35.8502 785.4 34.7502C784.85 33.6502 784.45 31.7502 784.45 30.5002C784.45 29.2502 784.65 27.4002 784.95 26.4002C785.2 25.3502 786.2 23.6502 787.1 22.6502C788.05 21.5502 789.95 20.3002 791.5 19.6502C792.95 19.0502 794.85 18.4502 795.7 18.3502C796.5 18.2502 800.8 18.1502 813.2 18.2502V18.2502ZM649.85 24.8502C650.85 25.6502 652.55 26.6502 655.45 28.0002V43.4002C655.4 51.8502 655.25 59.0502 655.05 59.4002C654.8 59.8502 653.6 60.0002 647.7 59.7502L647.6 42.2502C647.55 32.6502 647.65 24.4502 647.8 24.1002C647.95 23.6002 648.5 23.8002 649.85 24.8502V24.8502ZM760.1 23.8002C760.4 24.0002 761.35 24.6502 762.2 25.2502C763 25.8502 764.45 26.6502 767 27.7502L766.7 59.7502H759.2L759.1 42.2502C759.05 32.6502 759.15 24.4502 759.25 24.1002C759.4 23.7502 759.75 23.6002 760.1 23.8002V23.8002ZM100.8 25.2002C102.1 25.9002 103.8 26.7002 105.85 27.5002L105.7 59.7502H98.2L98.1 42.5002C98.05 33.0502 98.15 25.0002 98.25 24.6502C98.35 24.1502 99.05 24.3002 100.8 25.2002V25.2002ZM581 24.5002C581.25 24.5002 582.15 24.9502 583.05 25.4502C583.95 25.9502 585.4 26.5002 587.95 27.0002V60.0002H584.55C582.5 60.0002 580.95 59.8002 580.55 59.4002C580.05 58.9002 579.9 54.9502 579.95 42.4002C579.95 33.4002 580.05 25.6502 580.25 25.2502C580.4 24.8502 580.75 24.5002 581 24.5002V24.5002ZM43.95 52.5002L43.7 59.7502H11.2L11 56.8002C10.9 55.2002 10.95 53.5502 11.1 53.2002C11.35 52.6502 14.45 52.5002 43.95 52.5002Z" fill="currentColor"/>
</svg>
